<svg width="1919" height="1080" viewBox="0 0 1919 1080" fill="none" xmlns="http://www.w3.org/2000/svg" xmlns:xlink="http://www.w3.org/1999/xlink">
<g clip-path="url(#clip0_455_3092)">
<rect width="1920" height="1080" fill="black"/>
<g filter="url(#filter0_i_455_3092)">
<rect width="1920" height="1097" fill="url(#pattern0_455_3092)" fill-opacity="0.06"/>
</g>
<g filter="url(#filter1_f_455_3092)">
<circle cx="130" cy="540" r="540" fill="#F5710C" fill-opacity="0.2"/>
</g>
<g filter="url(#filter2_f_455_3092)">
<circle cx="1675" cy="540" r="540" fill="#018BFD" fill-opacity="0.2"/>
</g>
<g opacity="0.6">
<g filter="url(#filter3_d_455_3092)">
<path d="M1634.16 1157.14L1634.47 1168.07L1636.5 1168.13L1638.53 1168.07L1638.84 1157.14L1636.5 1157.07L1634.16 1157.14ZM1634.37 1137.08L1634.12 1146.73L1636.5 1146.79L1638.87 1146.73L1638.63 1137.08L1636.5 1137.02L1634.37 1137.08ZM1636.5 1127.26L1638.38 1127.21L1638.13 1117.53L1636.5 1117.49L1634.87 1117.53L1634.62 1127.21L1636.5 1127.26ZM1636.5 1107.72L1637.88 1107.69L1637.63 1097.98L1636.5 1097.95L1635.37 1097.98L1635.12 1107.69L1636.5 1107.72ZM1636.5 1088.19L1637.38 1088.16L1637.13 1078.43L1636.5 1078.42L1635.87 1078.43L1635.62 1088.16L1636.5 1088.19ZM1636.5 1068.65L1636.88 1068.64L1636.63 1058.89L1636.5 1058.88L1636.37 1058.89L1636.12 1068.64L1636.5 1068.65ZM1637.91 1190.2L1638.22 1179.23L1636.5 1179.18L1634.78 1179.23L1635.09 1190.2L1636.5 1190.24L1637.91 1190.2ZM1636.5 1201.3L1635.41 1201.33L1635.72 1212.33L1636.5 1212.36L1637.28 1212.33L1637.59 1201.33L1636.5 1201.3ZM1636.5 1223.41L1636.03 1223.43L1636.34 1234.47L1636.5 1234.47L1636.66 1234.47L1636.97 1223.43L1636.5 1223.41Z" stroke="url(#paint0_linear_455_3092)" stroke-width="63" stroke-dasharray="10 10" shape-rendering="crispEdges"/>
<path d="M1634.16 1157.14L1634.47 1168.07L1636.5 1168.13L1638.53 1168.07L1638.84 1157.14L1636.5 1157.07L1634.16 1157.14ZM1634.37 1137.08L1634.12 1146.73L1636.5 1146.79L1638.87 1146.73L1638.63 1137.08L1636.5 1137.02L1634.37 1137.08ZM1636.5 1127.26L1638.38 1127.21L1638.13 1117.53L1636.5 1117.49L1634.87 1117.53L1634.62 1127.21L1636.5 1127.26ZM1636.5 1107.72L1637.88 1107.69L1637.63 1097.98L1636.5 1097.95L1635.37 1097.98L1635.12 1107.69L1636.5 1107.72ZM1636.5 1088.19L1637.38 1088.16L1637.13 1078.43L1636.5 1078.42L1635.87 1078.43L1635.62 1088.16L1636.5 1088.19ZM1636.5 1068.65L1636.88 1068.64L1636.63 1058.89L1636.5 1058.88L1636.37 1058.89L1636.12 1068.64L1636.5 1068.65ZM1637.91 1190.2L1638.22 1179.23L1636.5 1179.18L1634.78 1179.23L1635.09 1190.2L1636.5 1190.24L1637.91 1190.2ZM1636.5 1201.3L1635.41 1201.33L1635.72 1212.33L1636.5 1212.36L1637.28 1212.33L1637.59 1201.33L1636.5 1201.3ZM1636.5 1223.41L1636.03 1223.43L1636.34 1234.47L1636.5 1234.47L1636.66 1234.47L1636.97 1223.43L1636.5 1223.41Z" stroke="url(#paint1_linear_455_3092)" stroke-width="63" stroke-dasharray="10 10" shape-rendering="crispEdges"/>
</g>
<g filter="url(#filter4_d_455_3092)">
<path d="M348.125 1157.14L348.373 1168.11L350 1168.15L351.627 1168.11L351.875 1157.14L350 1157.09L348.125 1157.14ZM348.299 1137.04L348.1 1146.73L350 1146.77L351.9 1146.73L351.701 1137.04L350 1137L348.299 1137.04ZM350 1127.24L351.5 1127.21L351.301 1117.5L350 1117.47L348.699 1117.5L348.5 1127.21L350 1127.24ZM350 1107.71L351.1 1107.69L350.901 1097.96L350 1097.94L349.099 1097.96L348.9 1107.69L350 1107.71ZM350 1088.18L350.7 1088.16L350.5 1078.42L350 1078.41L349.5 1078.42L349.3 1088.16L350 1088.18ZM350 1068.65L350.3 1068.64L350.1 1058.88L350 1058.88L349.9 1058.88L349.7 1068.64L350 1068.65ZM351.126 1190.23L351.375 1179.23L350 1179.2L348.625 1179.23L348.874 1190.23L350 1190.26L351.126 1190.23ZM350 1201.31L349.125 1201.33L349.374 1212.35L350 1212.36L350.626 1212.35L350.875 1201.33L350 1201.31ZM350 1223.42L349.625 1223.43L349.875 1234.47L350 1234.47L350.125 1234.47L350.375 1223.43L350 1223.42Z" stroke="url(#paint2_linear_455_3092)" stroke-width="63" stroke-dasharray="10 10" shape-rendering="crispEdges"/>
<path d="M348.125 1157.14L348.373 1168.11L350 1168.15L351.627 1168.11L351.875 1157.14L350 1157.09L348.125 1157.14ZM348.299 1137.04L348.1 1146.73L350 1146.77L351.9 1146.73L351.701 1137.04L350 1137L348.299 1137.04ZM350 1127.24L351.5 1127.21L351.301 1117.5L350 1117.47L348.699 1117.5L348.5 1127.21L350 1127.24ZM350 1107.71L351.1 1107.69L350.901 1097.96L350 1097.94L349.099 1097.96L348.9 1107.69L350 1107.71ZM350 1088.18L350.7 1088.16L350.5 1078.42L350 1078.41L349.5 1078.42L349.3 1088.16L350 1088.18ZM350 1068.65L350.3 1068.64L350.1 1058.88L350 1058.88L349.9 1058.88L349.7 1068.64L350 1068.65ZM351.126 1190.23L351.375 1179.23L350 1179.2L348.625 1179.23L348.874 1190.23L350 1190.26L351.126 1190.23ZM350 1201.31L349.125 1201.33L349.374 1212.35L350 1212.36L350.626 1212.35L350.875 1201.33L350 1201.31ZM350 1223.42L349.625 1223.43L349.875 1234.47L350 1234.47L350.125 1234.47L350.375 1223.43L350 1223.42Z" stroke="url(#paint3_linear_455_3092)" stroke-width="63" stroke-dasharray="10 10" shape-rendering="crispEdges"/>
</g>
</g>
</g>
<defs>
<filter id="filter0_i_455_3092" x="0" y="0" width="1924" height="1101" filterUnits="userSpaceOnUse" color-interpolation-filters="sRGB">
<feFlood flood-opacity="0" result="BackgroundImageFix"/>
<feBlend mode="normal" in="SourceGraphic" in2="BackgroundImageFix" result="shape"/>
<feColorMatrix in="SourceAlpha" type="matrix" values="0 0 0 0 0 0 0 0 0 0 0 0 0 0 0 0 0 0 127 0" result="hardAlpha"/>
<feMorphology radius="8" operator="erode" in="SourceAlpha" result="effect1_innerShadow_455_3092"/>
<feOffset dx="4" dy="4"/>
<feGaussianBlur stdDeviation="125"/>
<feComposite in2="hardAlpha" operator="arithmetic" k2="-1" k3="1"/>
<feColorMatrix type="matrix" values="0 0 0 0 1 0 0 0 0 1 0 0 0 0 1 0 0 0 0.1 0"/>
<feBlend mode="normal" in2="shape" result="effect1_innerShadow_455_3092"/>
</filter>
<pattern id="pattern0_455_3092" patternContentUnits="objectBoundingBox" width="2.13333" height="0.835005">
<use xlink:href="#image0_455_3092" transform="scale(0.000520833 0.000911577)"/>
</pattern>
<filter id="filter1_f_455_3092" x="-1150.6" y="-740.6" width="2561.2" height="2561.2" filterUnits="userSpaceOnUse" color-interpolation-filters="sRGB">
<feFlood flood-opacity="0" result="BackgroundImageFix"/>
<feBlend mode="normal" in="SourceGraphic" in2="BackgroundImageFix" result="shape"/>
<feGaussianBlur stdDeviation="370.3" result="effect1_foregroundBlur_455_3092"/>
</filter>
<filter id="filter2_f_455_3092" x="394.4" y="-740.6" width="2561.2" height="2561.2" filterUnits="userSpaceOnUse" color-interpolation-filters="sRGB">
<feFlood flood-opacity="0" result="BackgroundImageFix"/>
<feBlend mode="normal" in="SourceGraphic" in2="BackgroundImageFix" result="shape"/>
<feGaussianBlur stdDeviation="370.3" result="effect1_foregroundBlur_455_3092"/>
</filter>
<filter id="filter3_d_455_3092" x="1630" y="1054" width="13" height="194" filterUnits="userSpaceOnUse" color-interpolation-filters="sRGB">
<feFlood flood-opacity="0" result="BackgroundImageFix"/>
<feColorMatrix in="SourceAlpha" type="matrix" values="0 0 0 0 0 0 0 0 0 0 0 0 0 0 0 0 0 0 127 0" result="hardAlpha"/>
<feOffset dy="4"/>
<feGaussianBlur stdDeviation="2"/>
<feComposite in2="hardAlpha" operator="out"/>
<feColorMatrix type="matrix" values="0 0 0 0 0 0 0 0 0 0 0 0 0 0 0 0 0 0 0.25 0"/>
<feBlend mode="normal" in2="BackgroundImageFix" result="effect1_dropShadow_455_3092"/>
<feBlend mode="normal" in="SourceGraphic" in2="effect1_dropShadow_455_3092" result="shape"/>
</filter>
<filter id="filter4_d_455_3092" x="344" y="1054" width="12" height="194" filterUnits="userSpaceOnUse" color-interpolation-filters="sRGB">
<feFlood flood-opacity="0" result="BackgroundImageFix"/>
<feColorMatrix in="SourceAlpha" type="matrix" values="0 0 0 0 0 0 0 0 0 0 0 0 0 0 0 0 0 0 127 0" result="hardAlpha"/>
<feOffset dy="4"/>
<feGaussianBlur stdDeviation="2"/>
<feComposite in2="hardAlpha" operator="out"/>
<feColorMatrix type="matrix" values="0 0 0 0 0 0 0 0 0 0 0 0 0 0 0 0 0 0 0.25 0"/>
<feBlend mode="normal" in2="BackgroundImageFix" result="effect1_dropShadow_455_3092"/>
<feBlend mode="normal" in="SourceGraphic" in2="effect1_dropShadow_455_3092" result="shape"/>
</filter>
<linearGradient id="paint0_linear_455_3092" x1="1636.5" y1="1054" x2="1636.5" y2="1240" gradientUnits="userSpaceOnUse">
<stop stop-color="#0055FF"/>
<stop offset="1" stop-color="#007FCF"/>
</linearGradient>
<linearGradient id="paint1_linear_455_3092" x1="1636.5" y1="1054" x2="1636.5" y2="1240" gradientUnits="userSpaceOnUse">
<stop stop-color="#0055FF"/>
<stop offset="1" stop-color="#007FCF"/>
</linearGradient>
<linearGradient id="paint2_linear_455_3092" x1="350" y1="1054" x2="350" y2="1240" gradientUnits="userSpaceOnUse">
<stop stop-color="#F7750C"/>
<stop offset="1" stop-color="#E8340D"/>
</linearGradient>
<linearGradient id="paint3_linear_455_3092" x1="350" y1="1054" x2="350" y2="1240" gradientUnits="userSpaceOnUse">
<stop stop-color="#E8340D"/>
<stop offset="1" stop-color="#F7750C"/>
</linearGradient>
<clipPath id="clip0_455_3092">
<rect width="1920" height="1080" fill="white"/>
</clipPath>
</defs>
</svg>
